<svg fill="none" height="100%" width="100%" viewBox="0 0 600 600" xmlns:xlink="http://www.w3.org/1999/xlink" xmlns="http://www.w3.org/2000/svg"><defs><clipPath id="i0"><rect height="512" width="512" y="0" x="0" /></clipPath><filter id="i1"><feColorMatrix values="0 0 0 0 1 0 0 0 0 1 0 0 0 0 1 0 0 0 1 0" type="matrix" /></filter><mask height="20000" width="20000" y="-10000" x="-10000" maskContentUnits="userSpaceOnUse" maskUnits="userSpaceOnUse" style="mask-type: alpha" mask-type="alpha" id="i2"><g transform="matrix(1,0,0,1,-321.279,-228.103)"><g filter="url(#i1)"><g transform="translate(351.5,225.5)"><animateTransform repeatCount="indefinite" type="translate" attributeName="transform" dur="6s" begin="0s" calcMode="spline" values="351.5 225.5; 351.5 225.5; 351.5 329.5; 351.5 225.5" keyTimes="0; 1; 1; 1" keySplines="0 0 1 1; 0.333 0 0.667 1; 0.333 0 0.667 1" fill="freeze" /><g transform="scale(1,1) translate(-98.5,30.5)"><g id="i3" transform="matrix(1,0,0,1,97.5,-17.5)"><rect ry="229" rx="229" height="125" width="60" y="-75.5" x="-29" fill="#ff0000" /></g></g></g></g></g></mask><g id="i4"><g mask="url(#i2)" transform="matrix(1,0,0,1,321.279,228.103)" visibility="hidden" id="i5"><animate repeatCount="indefinite" begin="0s" calcMode="discrete" dur="6s" values="hidden; visible; visible" keyTimes="0; 0.328; 1" attributeName="visibility" /><g id="i6" transform="matrix(1,0,0,1,30.25,30.25)"><path fill="#000000" d="M0,-30C-16.542,-30,-30,-16.542,-30,0C-30,16.542,-16.542,30,0,30C16.542,30,30,16.542,30,0C30,-16.542,16.542,-30,0,-30Z" /></g></g><g display="none" visibility="hidden" id="m7"><animate repeatCount="indefinite" begin="0s" calcMode="discrete" dur="6s" values="hidden; visible; visible" keyTimes="0; 0.328; 1" attributeName="visibility" /><g transform="translate(351.5,225.5)"><animateTransform repeatCount="indefinite" type="translate" attributeName="transform" dur="6s" begin="0s" calcMode="spline" values="351.5 225.5; 351.5 225.5; 351.5 329.5; 351.5 225.5" keyTimes="0; 1; 1; 1" keySplines="0 0 1 1; 0.333 0 0.667 1; 0.333 0 0.667 1" fill="freeze" /><g transform="scale(1,1) translate(-98.5,30.5)"><g id="i3" transform="matrix(1,0,0,1,97.5,-17.5)"><rect ry="229" rx="229" height="125" width="60" y="-75.5" x="-29" fill="#ff0000" /></g></g></g></g></g><g id="i8"><g visibility="hidden" id="i9"><animate repeatCount="indefinite" begin="0s" calcMode="discrete" dur="6s" values="hidden; visible; hidden; hidden" keyTimes="0; 0.512; 0.628; 1" attributeName="visibility" /><animate repeatCount="indefinite" attributeName="opacity" dur="6s" begin="0s" fill="freeze" values="1; 1; 0.05; 0.05" keyTimes="0; 0.511623; 0.622845; 1" keySplines="0 0 1 1; 0.333 0 0.667 1; 0 0 1 1" calcMode="spline" /><g transform="translate(250.922,57.706)"><g transform="scale(0,0)"><animateTransform repeatCount="indefinite" type="scale" attributeName="transform" dur="6s" begin="0s" calcMode="spline" values="0 0; 0 0; 1 1; 1 1" keyTimes="0; 0.511623; 0.622845; 1" keySplines="0 0 1 1; 0.333 0 0.667 1; 0 0 1 1" fill="freeze" /><g transform="translate(-42.236,-42.235)"><g id="i6" transform="matrix(1,0,0,1,42.236,42.235)"><path fill="#00aeff" fill-opacity="0.15" d="M0,-42.235C-23.289,-42.235,-42.235,-23.288,-42.235,0C-42.235,23.289,-23.289,42.236,0,42.236C23.289,42.236,42.235,23.289,42.235,0C42.235,-23.288,23.289,-42.235,0,-42.235Z" /></g></g></g></g></g><g visibility="hidden" id="i10"><animate repeatCount="indefinite" begin="0s" calcMode="discrete" dur="6s" values="hidden; visible; hidden; hidden" keyTimes="0; 0.534; 0.651; 1" attributeName="visibility" /><animate repeatCount="indefinite" attributeName="opacity" dur="6s" begin="0s" fill="freeze" values="1; 1; 0.05; 0.05" keyTimes="0; 0.533867; 0.64509; 1" keySplines="0 0 1 1; 0.333 0 0.667 1; 0 0 1 1" calcMode="spline" /><g transform="translate(250.922,57.706)"><g transform="scale(0,0)"><animateTransform repeatCount="indefinite" type="scale" attributeName="transform" dur="6s" begin="0s" calcMode="spline" values="0 0; 0 0; 1 1; 1 1" keyTimes="0; 0.533867; 0.645089; 1" keySplines="0 0 1 1; 0.333 0 0.667 1; 0 0 1 1" fill="freeze" /><g transform="translate(-42.236,-42.235)"><g id="i6" transform="matrix(1,0,0,1,42.236,42.235)"><path fill="#00aeff" fill-opacity="0.15" d="M0,-42.235C-23.289,-42.235,-42.235,-23.288,-42.235,0C-42.235,23.289,-23.289,42.236,0,42.236C23.289,42.236,42.235,23.289,42.235,0C42.235,-23.288,23.289,-42.235,0,-42.235Z" /></g></g></g></g></g><g visibility="hidden" id="i11"><animate repeatCount="indefinite" begin="0s" calcMode="discrete" dur="6s" values="hidden; visible; hidden; hidden" keyTimes="0; 0.562; 0.678; 1" attributeName="visibility" /><animate repeatCount="indefinite" attributeName="opacity" dur="6s" begin="0s" fill="freeze" values="1; 1; 0.05; 0.05" keyTimes="0; 0.561673; 0.672895; 1" keySplines="0 0 1 1; 0.333 0 0.667 1; 0 0 1 1" calcMode="spline" /><g transform="translate(250.922,57.706)"><g transform="scale(0,0)"><animateTransform repeatCount="indefinite" type="scale" attributeName="transform" dur="6s" begin="0s" calcMode="spline" values="0 0; 0 0; 1 1; 1 1" keyTimes="0; 0.561673; 0.672895; 1" keySplines="0 0 1 1; 0.333 0 0.667 1; 0 0 1 1" fill="freeze" /><g transform="translate(-42.236,-42.235)"><g id="i6" transform="matrix(1,0,0,1,42.236,42.235)"><path fill="#00aeff" fill-opacity="0.15" d="M0,-42.235C-23.289,-42.235,-42.235,-23.288,-42.235,0C-42.235,23.289,-23.289,42.236,0,42.236C23.289,42.236,42.235,23.289,42.235,0C42.235,-23.288,23.289,-42.235,0,-42.235Z" /></g></g></g></g></g></g><filter id="i12"><feColorMatrix values="0 0 0 0 1 0 0 0 0 1 0 0 0 0 1 0 0 0 1 0" type="matrix" /></filter><mask height="20000" width="20000" y="-10000" x="-10000" maskContentUnits="userSpaceOnUse" maskUnits="userSpaceOnUse" style="mask-type: alpha" mask-type="alpha" id="i13"><g transform="matrix(1,0,0,1,-200,-234)"><g filter="url(#i12)"><g transform="translate(251,258.25)"><animateTransform repeatCount="indefinite" type="translate" attributeName="transform" dur="6s" begin="0s" calcMode="spline" values="251 258.25; 251 258.25; 251 307.25; 251 307.25; 251 258.25; 251 258.25" keyTimes="0; 0.328106; 0.389278; 0.828606; 0.906462; 1" keySplines="0 0 1 1; 0.874 0 0.777 1; 0 0 1 1; 0.167 0 0.667 1; 0 0 1 1" fill="freeze" /><g transform="scale(1,1.33) translate(4,-25)"><g id="i3" transform="matrix(1,0,0,1,-4,25)"><rect height="50" width="68" y="-25" x="-34" fill="#ff0000" /></g></g></g></g></g></mask><g id="i14"><g transform="matrix(1,0,0,1,8.672,108.103)" id="i15"><g id="i6" transform="matrix(1,0,0,1,241.25,180.66)"><path fill="#000000" fill-rule="evenodd" d="M91,-180.41C91,-180.41,-91,-180.41,-91,-180.41C-173.71,-180.41,-241,-113.12,-241,-30.41C-241,7.91,-226.55,42.9,-202.82,69.45C-202.82,69.45,-202.44,69.78,-202.44,69.78C-202.44,69.78,-177.41,91.82,-177.41,91.82C-177.41,91.82,-175.77,93.26,-175.77,93.26C-157.08,106.12,-135.35,114.86,-111.9,118.14C-109.95,119.07,-107.76,119.59,-105.46,119.59C-105.46,119.59,-91,119.59,-91,119.59C-91,119.59,-91,164.59,-91,164.59C-91,170.11,-87.97,175.18,-83.11,177.8C-78.26,180.41,-72.35,180.15,-67.74,177.11C-67.74,177.11,19.5,119.59,19.5,119.59C19.5,119.59,91,119.59,91,119.59C144.53,119.59,191.59,91.4,218.14,49.09C218.14,49.09,232.53,19.29,232.53,19.29C238.01,3.72,241,-13,241,-30.41C241,-113.12,173.71,-180.41,91,-180.41ZM198.3,23.26C192.68,34.48,185.33,44.7,176.61,53.58C154.84,75.79,124.5,89.59,91,89.59C91,89.59,15,89.59,15,89.59C12.06,89.59,9.19,90.45,6.74,92.07C6.74,92.07,-35,119.59,-35,119.59C-35,119.59,-61,136.73,-61,136.73C-61,136.73,-61,104.59,-61,104.59C-61,96.31,-67.72,89.59,-76,89.59C-76,89.59,-91,89.59,-91,89.59C-101.42,89.59,-111.54,88.25,-121.18,85.75C-136.68,81.72,-150.96,74.66,-163.37,65.25C-192.29,43.32,-211,8.6,-211,-30.41C-211,-96.58,-157.17,-150.41,-91,-150.41C-91,-150.41,91,-150.41,91,-150.41C157.17,-150.41,211,-96.58,211,-30.41C211,-11.13,206.43,7.1,198.3,23.26Z" /></g></g><g visibility="visible" id="i16"><animate repeatCount="indefinite" begin="0s" calcMode="discrete" dur="6s" values="visible; hidden; hidden" keyTimes="0; 0.328; 1" attributeName="visibility" /><g transform="translate(149.529,258.353)"><g transform="scale(1,1)"><animateTransform repeatCount="indefinite" type="scale" attributeName="transform" dur="6s" begin="0s" calcMode="spline" values="1 1; 1.2 1.2; 1 1; 1 1; 1.2 1.2; 1 1; 1 1" keyTimes="0; 0.055611; 0.111222; 0.166833; 0.222444; 0.278056; 1" keySplines="0.333 0 0.667 1; 0.333 0 0.667 1; 0.333 0 0.667 1; 0.333 0 0.667 1; 0.333 0 0.667 1; 0 0 1 1" fill="freeze" /><g transform="translate(-30.25,-30.25)"><g id="i6" transform="matrix(1,0,0,1,30.25,30.25)"><path fill="#000000" d="M0,-30C-16.542,-30,-30,-16.542,-30,0C-30,16.542,-16.542,30,0,30C16.542,30,30,16.542,30,0C30,-16.542,16.542,-30,0,-30Z" /></g></g></g></g></g><g visibility="visible" id="i17"><animate repeatCount="indefinite" begin="0s" calcMode="discrete" dur="6s" values="visible; hidden; hidden" keyTimes="0; 0.328; 1" attributeName="visibility" /><g transform="translate(250.529,258.353)"><g transform="scale(1,1)"><animateTransform repeatCount="indefinite" type="scale" attributeName="transform" dur="6s" begin="0s" calcMode="spline" values="1 1; 1 1; 1.2 1.2; 1 1; 1 1; 1.2 1.2; 1 1; 1 1" keyTimes="0; 0.016683; 0.072294; 0.127905; 0.189078; 0.244689; 0.3003; 1" keySplines="0 0 1 1; 0.333 0 0.667 1; 0.333 0 0.667 1; 0.167 0 0.833 1; 0.333 0 0.667 1; 0.333 0 0.667 1; 0 0 1 1" fill="freeze" /><g transform="translate(-30.25,-30.25)"><g id="i6" transform="matrix(1,0,0,1,30.25,30.25)"><path fill="#000000" d="M0,-30C-16.542,-30,-30,-16.542,-30,0C-30,16.542,-16.542,30,0,30C16.542,30,30,16.542,30,0C30,-16.542,16.542,-30,0,-30Z" /></g></g></g></g></g><g visibility="visible" id="i18"><animate repeatCount="indefinite" begin="0s" calcMode="discrete" dur="6s" values="visible; hidden; hidden" keyTimes="0; 0.328; 1" attributeName="visibility" /><g transform="translate(351.529,258.353)"><g transform="scale(1,1)"><animateTransform repeatCount="indefinite" type="scale" attributeName="transform" dur="6s" begin="0s" calcMode="spline" values="1 1; 1 1; 1.2 1.2; 1 1; 1 1; 1.2 1.2; 1 1; 1 1" keyTimes="0; 0.038928; 0.094539; 0.15015; 0.216883; 0.272494; 0.328106; 1" keySplines="0 0 1 1; 0.333 0 0.667 1; 0.333 0 0.667 1; 0.167 0 0.833 1; 0.333 0 0.667 1; 0.333 0 0.667 1; 0 0 1 1" fill="freeze" /><g transform="translate(-30.25,-30.25)"><g id="i6" transform="matrix(1,0,0,1,30.25,30.25)"><path fill="#000000" d="M0,-30C-16.542,-30,-30,-16.542,-30,0C-30,16.542,-16.542,30,0,30C16.542,30,30,16.542,30,0C30,-16.542,16.542,-30,0,-30Z" /></g></g></g></g></g><g mask="url(#i13)" transform="matrix(1,0,0,1,200,234)" id="i19"><g visibility="hidden" id="i20"><animate repeatCount="indefinite" begin="0s" calcMode="discrete" dur="6s" values="hidden; visible; visible" keyTimes="0; 0.328; 1" attributeName="visibility" /><g transform="translate(50.529,24.353)"><animateTransform repeatCount="indefinite" type="translate" attributeName="transform" dur="6s" begin="0s" calcMode="spline" values="50.529 24.353; 50.529 24.353; 50.529 39.353; 50.529 39.353; 50.529 24.353; 50.529 24.353" keyTimes="0; 0.328106; 0.389278; 0.828606; 0.906462; 1" keySplines="0 0 1 1; 0.948 0 0.667 1; 0 0 1 1; 0.167 0 0.833 1; 0 0 1 1" fill="freeze" /><g transform="scale(1,1) translate(-30.25,-30.25)"><g id="i6" transform="matrix(1,0,0,1,30.25,30.25)"><path fill="#000000" d="M0,-30C-16.542,-30,-30,-16.542,-30,0C-30,16.542,-16.542,30,0,30C16.542,30,30,16.542,30,0C30,-16.542,16.542,-30,0,-30Z" /></g></g></g></g></g><g display="none" visibility="hidden" id="i21"><animate repeatCount="indefinite" begin="0s" calcMode="discrete" dur="6s" values="hidden; visible; visible" keyTimes="0; 0.328; 1" attributeName="visibility" /><g transform="translate(251,258.25)"><animateTransform repeatCount="indefinite" type="translate" attributeName="transform" dur="6s" begin="0s" calcMode="spline" values="251 258.25; 251 258.25; 251 307.25; 251 307.25; 251 258.25; 251 258.25" keyTimes="0; 0.328106; 0.389278; 0.828606; 0.906462; 1" keySplines="0 0 1 1; 0.874 0 0.777 1; 0 0 1 1; 0.167 0 0.667 1; 0 0 1 1" fill="freeze" /><g transform="scale(1,1.33) translate(4,-25)"><g id="i3" transform="matrix(1,0,0,1,-4,25)"><rect height="50" width="68" y="-25" x="-34" fill="#ff0000" /></g></g></g></g><g transform="matrix(1,0,0,1,200,234)" opacity="0" visibility="hidden" id="i19"><animate repeatCount="indefinite" begin="0s" calcMode="discrete" dur="6s" values="hidden; visible; visible" keyTimes="0; 0.328; 1" attributeName="visibility" /></g><g transform="matrix(1,0,0,1,0,0)" id="i22"><g clip-path="url(#i0)"><g mask="url(#i2)" transform="matrix(1,0,0,1,321.279,228.103)" visibility="hidden"><animate repeatCount="indefinite" begin="0s" calcMode="discrete" dur="6s" values="hidden; visible; visible" keyTimes="0; 0.328; 1" attributeName="visibility" /><g transform="matrix(1,0,0,1,30.25,30.25)"><path fill="#000000" d="M0,-30C-16.542,-30,-30,-16.542,-30,0C-30,16.542,-16.542,30,0,30C16.542,30,30,16.542,30,0C30,-16.542,16.542,-30,0,-30Z" /></g></g><g display="none" visibility="hidden"><animate repeatCount="indefinite" begin="0s" calcMode="discrete" dur="6s" values="hidden; visible; visible" keyTimes="0; 0.328; 1" attributeName="visibility" /><g transform="translate(351.5,225.5)"><animateTransform repeatCount="indefinite" type="translate" attributeName="transform" dur="6s" begin="0s" calcMode="spline" values="351.5 225.5; 351.5 225.5; 351.5 329.5; 351.5 225.5" keyTimes="0; 1; 1; 1" keySplines="0 0 1 1; 0.333 0 0.667 1; 0.333 0 0.667 1" fill="freeze" /><g transform="scale(1,1) translate(-98.5,30.5)"><g transform="matrix(1,0,0,1,97.5,-17.5)"><rect ry="229" rx="229" height="125" width="60" y="-75.5" x="-29" fill="#ff0000" /></g></g></g></g></g></g><g transform="matrix(1,0,0,1,-202,0)" id="i22"><g clip-path="url(#i0)"><g mask="url(#i2)" transform="matrix(1,0,0,1,321.279,228.103)" visibility="hidden"><animate repeatCount="indefinite" begin="0s" calcMode="discrete" dur="6s" values="hidden; visible; visible" keyTimes="0; 0.328; 1" attributeName="visibility" /><g transform="matrix(1,0,0,1,30.25,30.25)"><path fill="#000000" d="M0,-30C-16.542,-30,-30,-16.542,-30,0C-30,16.542,-16.542,30,0,30C16.542,30,30,16.542,30,0C30,-16.542,16.542,-30,0,-30Z" /></g></g><g display="none" visibility="hidden"><animate repeatCount="indefinite" begin="0s" calcMode="discrete" dur="6s" values="hidden; visible; visible" keyTimes="0; 0.328; 1" attributeName="visibility" /><g transform="translate(351.5,225.5)"><animateTransform repeatCount="indefinite" type="translate" attributeName="transform" dur="6s" begin="0s" calcMode="spline" values="351.5 225.5; 351.5 225.5; 351.5 329.5; 351.5 225.5" keyTimes="0; 1; 1; 1" keySplines="0 0 1 1; 0.333 0 0.667 1; 0.333 0 0.667 1" fill="freeze" /><g transform="scale(1,1) translate(-98.5,30.5)"><g transform="matrix(1,0,0,1,97.5,-17.5)"><rect ry="229" rx="229" height="125" width="60" y="-75.5" x="-29" fill="#ff0000" /></g></g></g></g></g></g><g transform="matrix(2,0,0,2,-252,-58)" visibility="hidden" id="i23"><animate repeatCount="indefinite" begin="0s" calcMode="discrete" dur="6s" values="hidden; visible; hidden; hidden" keyTimes="0; 0.512; 0.662; 1" attributeName="visibility" /><g clip-path="url(#i0)"><g visibility="hidden"><animate repeatCount="indefinite" begin="0s" calcMode="discrete" dur="6s" values="hidden; visible; hidden; hidden" keyTimes="0; 0.512; 0.628; 1" attributeName="visibility" /><animate repeatCount="indefinite" attributeName="opacity" dur="6s" begin="0s" fill="freeze" values="1; 1; 0.05; 0.05" keyTimes="0; 0.511623; 0.622845; 1" keySplines="0 0 1 1; 0.333 0 0.667 1; 0 0 1 1" calcMode="spline" /><g transform="translate(250.922,57.706)"><g transform="scale(0,0)"><animateTransform repeatCount="indefinite" type="scale" attributeName="transform" dur="6s" begin="0s" calcMode="spline" values="0 0; 0 0; 1 1; 1 1" keyTimes="0; 0.511623; 0.622845; 1" keySplines="0 0 1 1; 0.333 0 0.667 1; 0 0 1 1" fill="freeze" /><g transform="translate(-42.236,-42.235)"><g transform="matrix(1,0,0,1,42.236,42.235)"><path fill="#00aeff" fill-opacity="0.15" d="M0,-42.235C-23.289,-42.235,-42.235,-23.288,-42.235,0C-42.235,23.289,-23.289,42.236,0,42.236C23.289,42.236,42.235,23.289,42.235,0C42.235,-23.288,23.289,-42.235,0,-42.235Z" /></g></g></g></g></g><g visibility="hidden"><animate repeatCount="indefinite" begin="0s" calcMode="discrete" dur="6s" values="hidden; visible; hidden; hidden" keyTimes="0; 0.534; 0.651; 1" attributeName="visibility" /><animate repeatCount="indefinite" attributeName="opacity" dur="6s" begin="0s" fill="freeze" values="1; 1; 0.05; 0.05" keyTimes="0; 0.533867; 0.64509; 1" keySplines="0 0 1 1; 0.333 0 0.667 1; 0 0 1 1" calcMode="spline" /><g transform="translate(250.922,57.706)"><g transform="scale(0,0)"><animateTransform repeatCount="indefinite" type="scale" attributeName="transform" dur="6s" begin="0s" calcMode="spline" values="0 0; 0 0; 1 1; 1 1" keyTimes="0; 0.533867; 0.645089; 1" keySplines="0 0 1 1; 0.333 0 0.667 1; 0 0 1 1" fill="freeze" /><g transform="translate(-42.236,-42.235)"><g transform="matrix(1,0,0,1,42.236,42.235)"><path fill="#00aeff" fill-opacity="0.15" d="M0,-42.235C-23.289,-42.235,-42.235,-23.288,-42.235,0C-42.235,23.289,-23.289,42.236,0,42.236C23.289,42.236,42.235,23.289,42.235,0C42.235,-23.288,23.289,-42.235,0,-42.235Z" /></g></g></g></g></g><g visibility="hidden"><animate repeatCount="indefinite" begin="0s" calcMode="discrete" dur="6s" values="hidden; visible; hidden; hidden" keyTimes="0; 0.562; 0.678; 1" attributeName="visibility" /><animate repeatCount="indefinite" attributeName="opacity" dur="6s" begin="0s" fill="freeze" values="1; 1; 0.05; 0.05" keyTimes="0; 0.561673; 0.672895; 1" keySplines="0 0 1 1; 0.333 0 0.667 1; 0 0 1 1" calcMode="spline" /><g transform="translate(250.922,57.706)"><g transform="scale(0,0)"><animateTransform repeatCount="indefinite" type="scale" attributeName="transform" dur="6s" begin="0s" calcMode="spline" values="0 0; 0 0; 1 1; 1 1" keyTimes="0; 0.561673; 0.672895; 1" keySplines="0 0 1 1; 0.333 0 0.667 1; 0 0 1 1" fill="freeze" /><g transform="translate(-42.236,-42.235)"><g transform="matrix(1,0,0,1,42.236,42.235)"><path fill="#00aeff" fill-opacity="0.15" d="M0,-42.235C-23.289,-42.235,-42.235,-23.288,-42.235,0C-42.235,23.289,-23.289,42.236,0,42.236C23.289,42.236,42.235,23.289,42.235,0C42.235,-23.288,23.289,-42.235,0,-42.235Z" /></g></g></g></g></g></g></g><g visibility="hidden" id="i24"><animate repeatCount="indefinite" begin="0s" calcMode="discrete" dur="6s" values="hidden; visible; visible" keyTimes="0; 0.384; 1" attributeName="visibility" /><g transform="translate(249.922,125.676)"><g transform="scale(1,0.21)"><animateTransform repeatCount="indefinite" type="scale" attributeName="transform" dur="6s" begin="0s" calcMode="spline" values="1 0.21; 1 0.21; 1 1; 1 1; 1 0.21; 1 0.21" keyTimes="0; 0.383717; 0.472695; 0.828606; 0.889779; 1" keySplines="0 0 1 1; 1 0 0.667 1; 0 0 1 1; 0.333 0 0.667 1; 0 0 1 1" fill="freeze" /><g transform="translate(-10.25,-60.75)"><g id="i6" transform="matrix(1,0,0,1,10.25,30.25)"><path fill="#000000" d="M10,30C10,30,-10,30,-10,30C-10,30,-10,-30,-10,-30C-10,-30,10,-30,10,-30C10,-30,10,30,10,30Z" /></g></g></g></g></g><g visibility="hidden" id="i25"><animate repeatCount="indefinite" begin="0s" calcMode="discrete" dur="6s" values="hidden; visible; visible" keyTimes="0; 0.423; 1" attributeName="visibility" /><g transform="translate(247.922,85.706)"><animateTransform repeatCount="indefinite" type="translate" attributeName="transform" dur="6s" begin="0s" calcMode="spline" values="247.922 85.706; 247.922 85.706; 247.922 120.706; 247.922 120.706" keyTimes="0; 0.828606; 0.889779; 1" keySplines="0 0 1 1; 0.333 0 0.667 1; 0 0 1 1" fill="freeze" /><g transform="scale(0,0)"><animateTransform repeatCount="indefinite" type="scale" attributeName="transform" dur="6s" begin="0s" calcMode="spline" values="0 0; 0 0; 1 1; 1 1; 0 0; 0 0" keyTimes="0; 0.422645; 0.49494; 0.828606; 0.889779; 1" keySplines="0 0 1 1; 1 0 0.146 1; 0 0 1 1; 0.333 0 0.667 1; 0 0 1 1" fill="freeze" /><g transform="translate(-27.576,-57.919)"><g id="i6" transform="matrix(1,0,0,1,30.25,30.25)"><path fill="#000000" d="M0,-30C-16.542,-30,-30,-16.542,-30,0C-30,16.542,-16.542,30,0,30C16.542,30,30,16.542,30,0C30,-16.542,16.542,-30,0,-30Z" /></g></g></g></g></g></g></defs><g transform="matrix(1,0,0,1,44,44)" id="i26"><g clip-path="url(#i0)"><g transform="matrix(1,0,0,1,8.672,108.103)"><g transform="matrix(1,0,0,1,241.25,180.66)"><path fill="#000000" fill-rule="evenodd" d="M91,-180.41C91,-180.41,-91,-180.41,-91,-180.41C-173.71,-180.41,-241,-113.12,-241,-30.41C-241,7.91,-226.55,42.9,-202.82,69.45C-202.82,69.45,-202.44,69.78,-202.44,69.78C-202.44,69.78,-177.41,91.82,-177.41,91.82C-177.41,91.82,-175.77,93.26,-175.77,93.26C-157.08,106.12,-135.35,114.86,-111.9,118.14C-109.95,119.07,-107.76,119.59,-105.46,119.59C-105.46,119.59,-91,119.59,-91,119.59C-91,119.59,-91,164.59,-91,164.59C-91,170.11,-87.97,175.18,-83.11,177.8C-78.26,180.41,-72.35,180.15,-67.74,177.11C-67.74,177.11,19.5,119.59,19.5,119.59C19.5,119.59,91,119.59,91,119.59C144.53,119.59,191.59,91.4,218.14,49.09C218.14,49.09,232.53,19.29,232.53,19.29C238.01,3.72,241,-13,241,-30.41C241,-113.12,173.71,-180.41,91,-180.41ZM198.3,23.26C192.68,34.48,185.33,44.7,176.61,53.58C154.84,75.79,124.5,89.59,91,89.59C91,89.59,15,89.59,15,89.59C12.06,89.59,9.19,90.45,6.74,92.07C6.74,92.07,-35,119.59,-35,119.59C-35,119.59,-61,136.73,-61,136.73C-61,136.73,-61,104.59,-61,104.59C-61,96.31,-67.72,89.59,-76,89.59C-76,89.59,-91,89.59,-91,89.59C-101.42,89.59,-111.54,88.25,-121.18,85.75C-136.68,81.72,-150.96,74.66,-163.37,65.25C-192.29,43.32,-211,8.6,-211,-30.41C-211,-96.58,-157.17,-150.41,-91,-150.41C-91,-150.41,91,-150.41,91,-150.41C157.17,-150.41,211,-96.58,211,-30.41C211,-11.13,206.43,7.1,198.3,23.26Z" /></g></g><g visibility="visible"><animate repeatCount="indefinite" begin="0s" calcMode="discrete" dur="6s" values="visible; hidden; hidden" keyTimes="0; 0.328; 1" attributeName="visibility" /><g transform="translate(149.529,258.353)"><g transform="scale(1,1)"><animateTransform repeatCount="indefinite" type="scale" attributeName="transform" dur="6s" begin="0s" calcMode="spline" values="1 1; 1.2 1.2; 1 1; 1 1; 1.2 1.2; 1 1; 1 1" keyTimes="0; 0.055611; 0.111222; 0.166833; 0.222444; 0.278056; 1" keySplines="0.333 0 0.667 1; 0.333 0 0.667 1; 0.333 0 0.667 1; 0.333 0 0.667 1; 0.333 0 0.667 1; 0 0 1 1" fill="freeze" /><g transform="translate(-30.25,-30.25)"><g transform="matrix(1,0,0,1,30.25,30.25)"><path fill="#000000" d="M0,-30C-16.542,-30,-30,-16.542,-30,0C-30,16.542,-16.542,30,0,30C16.542,30,30,16.542,30,0C30,-16.542,16.542,-30,0,-30Z" /></g></g></g></g></g><g visibility="visible"><animate repeatCount="indefinite" begin="0s" calcMode="discrete" dur="6s" values="visible; hidden; hidden" keyTimes="0; 0.328; 1" attributeName="visibility" /><g transform="translate(250.529,258.353)"><g transform="scale(1,1)"><animateTransform repeatCount="indefinite" type="scale" attributeName="transform" dur="6s" begin="0s" calcMode="spline" values="1 1; 1 1; 1.2 1.2; 1 1; 1 1; 1.2 1.2; 1 1; 1 1" keyTimes="0; 0.016683; 0.072294; 0.127905; 0.189078; 0.244689; 0.3003; 1" keySplines="0 0 1 1; 0.333 0 0.667 1; 0.333 0 0.667 1; 0.167 0 0.833 1; 0.333 0 0.667 1; 0.333 0 0.667 1; 0 0 1 1" fill="freeze" /><g transform="translate(-30.25,-30.25)"><g transform="matrix(1,0,0,1,30.25,30.25)"><path fill="#000000" d="M0,-30C-16.542,-30,-30,-16.542,-30,0C-30,16.542,-16.542,30,0,30C16.542,30,30,16.542,30,0C30,-16.542,16.542,-30,0,-30Z" /></g></g></g></g></g><g visibility="visible"><animate repeatCount="indefinite" begin="0s" calcMode="discrete" dur="6s" values="visible; hidden; hidden" keyTimes="0; 0.328; 1" attributeName="visibility" /><g transform="translate(351.529,258.353)"><g transform="scale(1,1)"><animateTransform repeatCount="indefinite" type="scale" attributeName="transform" dur="6s" begin="0s" calcMode="spline" values="1 1; 1 1; 1.2 1.2; 1 1; 1 1; 1.2 1.2; 1 1; 1 1" keyTimes="0; 0.038928; 0.094539; 0.15015; 0.216883; 0.272494; 0.328106; 1" keySplines="0 0 1 1; 0.333 0 0.667 1; 0.333 0 0.667 1; 0.167 0 0.833 1; 0.333 0 0.667 1; 0.333 0 0.667 1; 0 0 1 1" fill="freeze" /><g transform="translate(-30.25,-30.25)"><g transform="matrix(1,0,0,1,30.25,30.25)"><path fill="#000000" d="M0,-30C-16.542,-30,-30,-16.542,-30,0C-30,16.542,-16.542,30,0,30C16.542,30,30,16.542,30,0C30,-16.542,16.542,-30,0,-30Z" /></g></g></g></g></g><g mask="url(#i13)" transform="matrix(1,0,0,1,200,234)"><g visibility="hidden"><animate repeatCount="indefinite" begin="0s" calcMode="discrete" dur="6s" values="hidden; visible; visible" keyTimes="0; 0.328; 1" attributeName="visibility" /><g transform="translate(50.529,24.353)"><animateTransform repeatCount="indefinite" type="translate" attributeName="transform" dur="6s" begin="0s" calcMode="spline" values="50.529 24.353; 50.529 24.353; 50.529 39.353; 50.529 39.353; 50.529 24.353; 50.529 24.353" keyTimes="0; 0.328106; 0.389278; 0.828606; 0.906462; 1" keySplines="0 0 1 1; 0.948 0 0.667 1; 0 0 1 1; 0.167 0 0.833 1; 0 0 1 1" fill="freeze" /><g transform="scale(1,1) translate(-30.25,-30.25)"><g transform="matrix(1,0,0,1,30.25,30.25)"><path fill="#000000" d="M0,-30C-16.542,-30,-30,-16.542,-30,0C-30,16.542,-16.542,30,0,30C16.542,30,30,16.542,30,0C30,-16.542,16.542,-30,0,-30Z" /></g></g></g></g></g><g display="none" visibility="hidden"><animate repeatCount="indefinite" begin="0s" calcMode="discrete" dur="6s" values="hidden; visible; visible" keyTimes="0; 0.328; 1" attributeName="visibility" /><g transform="translate(251,258.25)"><animateTransform repeatCount="indefinite" type="translate" attributeName="transform" dur="6s" begin="0s" calcMode="spline" values="251 258.25; 251 258.25; 251 307.25; 251 307.25; 251 258.25; 251 258.25" keyTimes="0; 0.328106; 0.389278; 0.828606; 0.906462; 1" keySplines="0 0 1 1; 0.874 0 0.777 1; 0 0 1 1; 0.167 0 0.667 1; 0 0 1 1" fill="freeze" /><g transform="scale(1,1.33) translate(4,-25)"><g transform="matrix(1,0,0,1,-4,25)"><rect height="50" width="68" y="-25" x="-34" fill="#ff0000" /></g></g></g></g><g transform="matrix(1,0,0,1,200,234)" opacity="0" visibility="hidden"><animate repeatCount="indefinite" begin="0s" calcMode="discrete" dur="6s" values="hidden; visible; visible" keyTimes="0; 0.328; 1" attributeName="visibility" /></g><g transform="matrix(1,0,0,1,0,0)"><g clip-path="url(#i0)"><g mask="url(#i2)" transform="matrix(1,0,0,1,321.279,228.103)" visibility="hidden"><animate repeatCount="indefinite" begin="0s" calcMode="discrete" dur="6s" values="hidden; visible; visible" keyTimes="0; 0.328; 1" attributeName="visibility" /><g transform="matrix(1,0,0,1,30.25,30.25)"><path fill="#000000" d="M0,-30C-16.542,-30,-30,-16.542,-30,0C-30,16.542,-16.542,30,0,30C16.542,30,30,16.542,30,0C30,-16.542,16.542,-30,0,-30Z" /></g></g><g display="none" visibility="hidden"><animate repeatCount="indefinite" begin="0s" calcMode="discrete" dur="6s" values="hidden; visible; visible" keyTimes="0; 0.328; 1" attributeName="visibility" /><g transform="translate(351.5,225.5)"><animateTransform repeatCount="indefinite" type="translate" attributeName="transform" dur="6s" begin="0s" calcMode="spline" values="351.5 225.5; 351.5 225.5; 351.5 329.5; 351.5 225.5" keyTimes="0; 1; 1; 1" keySplines="0 0 1 1; 0.333 0 0.667 1; 0.333 0 0.667 1" fill="freeze" /><g transform="scale(1,1) translate(-98.5,30.5)"><g transform="matrix(1,0,0,1,97.5,-17.5)"><rect ry="229" rx="229" height="125" width="60" y="-75.5" x="-29" fill="#ff0000" /></g></g></g></g></g></g><g transform="matrix(1,0,0,1,-202,0)"><g clip-path="url(#i0)"><g mask="url(#i2)" transform="matrix(1,0,0,1,321.279,228.103)" visibility="hidden"><animate repeatCount="indefinite" begin="0s" calcMode="discrete" dur="6s" values="hidden; visible; visible" keyTimes="0; 0.328; 1" attributeName="visibility" /><g transform="matrix(1,0,0,1,30.25,30.25)"><path fill="#000000" d="M0,-30C-16.542,-30,-30,-16.542,-30,0C-30,16.542,-16.542,30,0,30C16.542,30,30,16.542,30,0C30,-16.542,16.542,-30,0,-30Z" /></g></g><g display="none" visibility="hidden"><animate repeatCount="indefinite" begin="0s" calcMode="discrete" dur="6s" values="hidden; visible; visible" keyTimes="0; 0.328; 1" attributeName="visibility" /><g transform="translate(351.5,225.5)"><animateTransform repeatCount="indefinite" type="translate" attributeName="transform" dur="6s" begin="0s" calcMode="spline" values="351.5 225.5; 351.5 225.5; 351.5 329.5; 351.5 225.5" keyTimes="0; 1; 1; 1" keySplines="0 0 1 1; 0.333 0 0.667 1; 0.333 0 0.667 1" fill="freeze" /><g transform="scale(1,1) translate(-98.5,30.5)"><g transform="matrix(1,0,0,1,97.5,-17.5)"><rect ry="229" rx="229" height="125" width="60" y="-75.5" x="-29" fill="#ff0000" /></g></g></g></g></g></g><g transform="matrix(2,0,0,2,-252,-58)" visibility="hidden"><animate repeatCount="indefinite" begin="0s" calcMode="discrete" dur="6s" values="hidden; visible; hidden; hidden" keyTimes="0; 0.512; 0.662; 1" attributeName="visibility" /><g clip-path="url(#i0)"><g visibility="hidden"><animate repeatCount="indefinite" begin="0s" calcMode="discrete" dur="6s" values="hidden; visible; hidden; hidden" keyTimes="0; 0.512; 0.628; 1" attributeName="visibility" /><animate repeatCount="indefinite" attributeName="opacity" dur="6s" begin="0s" fill="freeze" values="1; 1; 0.05; 0.05" keyTimes="0; 0.511623; 0.622845; 1" keySplines="0 0 1 1; 0.333 0 0.667 1; 0 0 1 1" calcMode="spline" /><g transform="translate(250.922,57.706)"><g transform="scale(0,0)"><animateTransform repeatCount="indefinite" type="scale" attributeName="transform" dur="6s" begin="0s" calcMode="spline" values="0 0; 0 0; 1 1; 1 1" keyTimes="0; 0.511623; 0.622845; 1" keySplines="0 0 1 1; 0.333 0 0.667 1; 0 0 1 1" fill="freeze" /><g transform="translate(-42.236,-42.235)"><g transform="matrix(1,0,0,1,42.236,42.235)"><path fill="#00aeff" fill-opacity="0.15" d="M0,-42.235C-23.289,-42.235,-42.235,-23.288,-42.235,0C-42.235,23.289,-23.289,42.236,0,42.236C23.289,42.236,42.235,23.289,42.235,0C42.235,-23.288,23.289,-42.235,0,-42.235Z" /></g></g></g></g></g><g visibility="hidden"><animate repeatCount="indefinite" begin="0s" calcMode="discrete" dur="6s" values="hidden; visible; hidden; hidden" keyTimes="0; 0.534; 0.651; 1" attributeName="visibility" /><animate repeatCount="indefinite" attributeName="opacity" dur="6s" begin="0s" fill="freeze" values="1; 1; 0.05; 0.05" keyTimes="0; 0.533867; 0.64509; 1" keySplines="0 0 1 1; 0.333 0 0.667 1; 0 0 1 1" calcMode="spline" /><g transform="translate(250.922,57.706)"><g transform="scale(0,0)"><animateTransform repeatCount="indefinite" type="scale" attributeName="transform" dur="6s" begin="0s" calcMode="spline" values="0 0; 0 0; 1 1; 1 1" keyTimes="0; 0.533867; 0.645089; 1" keySplines="0 0 1 1; 0.333 0 0.667 1; 0 0 1 1" fill="freeze" /><g transform="translate(-42.236,-42.235)"><g transform="matrix(1,0,0,1,42.236,42.235)"><path fill="#00aeff" fill-opacity="0.15" d="M0,-42.235C-23.289,-42.235,-42.235,-23.288,-42.235,0C-42.235,23.289,-23.289,42.236,0,42.236C23.289,42.236,42.235,23.289,42.235,0C42.235,-23.288,23.289,-42.235,0,-42.235Z" /></g></g></g></g></g><g visibility="hidden"><animate repeatCount="indefinite" begin="0s" calcMode="discrete" dur="6s" values="hidden; visible; hidden; hidden" keyTimes="0; 0.562; 0.678; 1" attributeName="visibility" /><animate repeatCount="indefinite" attributeName="opacity" dur="6s" begin="0s" fill="freeze" values="1; 1; 0.05; 0.05" keyTimes="0; 0.561673; 0.672895; 1" keySplines="0 0 1 1; 0.333 0 0.667 1; 0 0 1 1" calcMode="spline" /><g transform="translate(250.922,57.706)"><g transform="scale(0,0)"><animateTransform repeatCount="indefinite" type="scale" attributeName="transform" dur="6s" begin="0s" calcMode="spline" values="0 0; 0 0; 1 1; 1 1" keyTimes="0; 0.561673; 0.672895; 1" keySplines="0 0 1 1; 0.333 0 0.667 1; 0 0 1 1" fill="freeze" /><g transform="translate(-42.236,-42.235)"><g transform="matrix(1,0,0,1,42.236,42.235)"><path fill="#00aeff" fill-opacity="0.15" d="M0,-42.235C-23.289,-42.235,-42.235,-23.288,-42.235,0C-42.235,23.289,-23.289,42.236,0,42.236C23.289,42.236,42.235,23.289,42.235,0C42.235,-23.288,23.289,-42.235,0,-42.235Z" /></g></g></g></g></g></g></g><g visibility="hidden"><animate repeatCount="indefinite" begin="0s" calcMode="discrete" dur="6s" values="hidden; visible; visible" keyTimes="0; 0.384; 1" attributeName="visibility" /><g transform="translate(249.922,125.676)"><g transform="scale(1,0.21)"><animateTransform repeatCount="indefinite" type="scale" attributeName="transform" dur="6s" begin="0s" calcMode="spline" values="1 0.21; 1 0.21; 1 1; 1 1; 1 0.21; 1 0.21" keyTimes="0; 0.383717; 0.472695; 0.828606; 0.889779; 1" keySplines="0 0 1 1; 1 0 0.667 1; 0 0 1 1; 0.333 0 0.667 1; 0 0 1 1" fill="freeze" /><g transform="translate(-10.25,-60.75)"><g transform="matrix(1,0,0,1,10.25,30.25)"><path fill="#000000" d="M10,30C10,30,-10,30,-10,30C-10,30,-10,-30,-10,-30C-10,-30,10,-30,10,-30C10,-30,10,30,10,30Z" /></g></g></g></g></g><g visibility="hidden"><animate repeatCount="indefinite" begin="0s" calcMode="discrete" dur="6s" values="hidden; visible; visible" keyTimes="0; 0.423; 1" attributeName="visibility" /><g transform="translate(247.922,85.706)"><animateTransform repeatCount="indefinite" type="translate" attributeName="transform" dur="6s" begin="0s" calcMode="spline" values="247.922 85.706; 247.922 85.706; 247.922 120.706; 247.922 120.706" keyTimes="0; 0.828606; 0.889779; 1" keySplines="0 0 1 1; 0.333 0 0.667 1; 0 0 1 1" fill="freeze" /><g transform="scale(0,0)"><animateTransform repeatCount="indefinite" type="scale" attributeName="transform" dur="6s" begin="0s" calcMode="spline" values="0 0; 0 0; 1 1; 1 1; 0 0; 0 0" keyTimes="0; 0.422645; 0.49494; 0.828606; 0.889779; 1" keySplines="0 0 1 1; 1 0 0.146 1; 0 0 1 1; 0.333 0 0.667 1; 0 0 1 1" fill="freeze" /><g transform="translate(-27.576,-57.919)"><g transform="matrix(1,0,0,1,30.25,30.25)"><path fill="#000000" d="M0,-30C-16.542,-30,-30,-16.542,-30,0C-30,16.542,-16.542,30,0,30C16.542,30,30,16.542,30,0C30,-16.542,16.542,-30,0,-30Z" /></g></g></g></g></g></g></g></svg>